<?xml version="1.0" encoding="utf-8"?>
<!-- Generator: Adobe Illustrator 16.0.4, SVG Export Plug-In . SVG Version: 6.00 Build 0)  -->
<!DOCTYPE svg PUBLIC "-//W3C//DTD SVG 1.1//EN" "http://www.w3.org/Graphics/SVG/1.1/DTD/svg11.dtd">
<svg version="1.1" id="Layer_1" xmlns="http://www.w3.org/2000/svg" xmlns:xlink="http://www.w3.org/1999/xlink" x="0px" y="0px"
	 width="200px" height="50px" viewBox="0 0 200 50" enable-background="new 0 0 200 50" xml:space="preserve">
<g>
	<path d="M20.903,48.251C14.35,44.756,9.496,40.63,5.855,33.98C2.214,27.33,1,19.515,1,4.37V0.487h41.261V4.37
		c0,15.146-1.214,22.96-4.855,29.611c-3.641,6.649-8.495,10.775-15.048,14.271l-0.728,0.389L20.903,48.251z M3.04,6.312
		c0,14.562,1.796,21.261,4.563,26.601c2.961,5.68,6.699,9.077,13.398,13.203l0.63,0.389l0.631-0.389
		c6.699-4.126,10.437-7.523,13.398-13.203c2.767-5.34,4.563-12.038,4.563-26.601V2.428H3.04V6.312z M28.864,21.554
		c0.485,0.485,1.408,0.971,2.961,0.971c1.553,0,3.058-0.485,3.058-0.485h0.097c0,1.067-1.359,1.941-2.136,2.232
		c-0.776,0.292-1.65,0.389-2.427,0.389c-0.777,0-2.039-0.194-2.427-0.389v0.098c0.388,0.68,1.262,1.165,1.941,1.358
		c0.68,0.194,1.262,0.244,1.554,0.244s0.874-0.05,0.874-0.05v0.098c0,0-0.291,0.534-1.165,0.971
		c-0.776,0.389-1.601,0.485-2.184,0.485c-0.971,0-1.796-0.291-2.476-0.874h-0.097c0.097,0.68,0.971,2.33,2.136,2.33
		c0.339,0,0.679-0.146,0.679-0.582h0.097c0,0,0.389,0.194,0.389,0.776c0,0.583-0.389,1.359-1.602,1.359
		c-1.893,0-3.058-2.136-3.35-3.204h-0.097c0,1.748,0.583,3.301,0.583,3.301l-0.048,0.048c-0.922-0.339-1.99-1.601-2.282-2.766
		h-0.097c0,3.98,1.262,5.146,2.864,5.146c1.214,0,1.796-0.583,1.796-0.583h0.097c0,2.233-1.165,3.01-2.33,3.01
		c-0.971,0-1.844-0.485-2.33-1.358h-0.097c0,1.456,0.583,3.106,2.524,3.106c0.777,0,1.165-0.291,1.165-0.291h0.097
		c0,1.262-0.777,2.232-2.039,2.232c-1.068,0-1.942-0.873-2.233-1.552h-0.097c0,0,0.388,1.261,0.388,2.328
		c0,1.263-0.582,2.331-0.97,2.815h-0.098c-0.388-0.484-0.971-1.553-0.971-2.815c0-1.067,0.389-2.328,0.389-2.328h-0.098
		c-0.291,0.679-1.165,1.552-2.232,1.552c-1.262,0-2.039-0.97-2.039-2.232h0.097c0,0,0.388,0.291,1.165,0.291
		c1.942,0,2.524-1.65,2.524-3.106h-0.097c-0.485,0.873-1.359,1.358-2.33,1.358c-1.165,0-2.331-0.776-2.331-3.01h0.098
		c0,0,0.582,0.583,1.796,0.583c1.602,0,2.864-1.165,2.864-5.146h-0.097c-0.292,1.165-1.359,2.427-2.282,2.766l-0.048-0.048
		c0,0,0.583-1.553,0.583-3.301h-0.097c-0.291,1.068-1.456,3.204-3.35,3.204c-1.213,0-1.602-0.776-1.602-1.359
		c0-0.582,0.389-0.776,0.389-0.776h0.097c0,0.436,0.34,0.582,0.679,0.582c1.166,0,2.039-1.65,2.136-2.33h-0.097
		c-0.68,0.583-1.505,0.874-2.476,0.874c-0.583,0-1.408-0.097-2.185-0.485c-0.874-0.437-1.165-0.971-1.165-0.971v-0.098
		c0,0,0.583,0.05,0.874,0.05c0.291,0,0.874-0.05,1.553-0.244c0.68-0.193,1.553-0.679,1.941-1.358v-0.098
		c-0.388,0.194-1.65,0.389-2.427,0.389c-0.776,0-1.65-0.097-2.427-0.389c-0.776-0.291-2.136-1.165-2.136-2.232h0.097
		c0,0,1.505,0.485,3.058,0.485c1.554,0,2.476-0.485,2.961-0.971v-0.098c-2.621,0-4.175-0.389-5.048-0.776
		c-0.874-0.388-2.039-1.165-2.039-2.718h0.097c0,0,1.068,0.776,3.058,0.776c1.553,0,2.475-0.485,2.864-0.873v-0.098
		c-2.136,0-3.689-0.291-4.757-0.873c-1.068-0.583-1.845-1.457-1.845-2.719h0.097c0,0,1.068,0.776,3.058,0.776
		c1.553,0,2.475-0.485,2.864-0.873v-0.098c-2.136,0-3.689-0.291-4.757-0.874c-1.068-0.583-1.845-1.456-1.845-2.718h0.097
		c0,0,1.068,0.776,3.058,0.776c1.554,0,2.476-0.485,2.864-0.874v-0.097c-2.136,0-3.689-0.292-4.757-0.874
		c-1.068-0.583-1.845-1.456-1.845-3.98h0.097C7.7,6.895,9.108,7.186,10.855,7.186c1.989,0,3.495-0.389,4.077-0.389
		c0.534,0,1.116,0.291,1.116,1.068c0,0.825-0.68,1.893-0.68,3.932c0,2.67,1.165,4.417,2.718,4.417c0,0,0.292,0.777,1.359,0.777
		c0.485,0,0.68-0.146,0.68-0.146h0.097c0.242,1.359,1.359,1.893,1.359,1.893h0.098c0,0,1.116-0.534,1.358-1.893h0.097
		c0,0,0.194,0.146,0.68,0.146c1.068,0,1.359-0.777,1.359-0.777c1.553,0,2.718-1.747,2.718-4.417c0-2.039-0.68-3.107-0.68-3.932
		c0-0.777,0.583-1.068,1.117-1.068c0.582,0,2.087,0.389,4.077,0.389c1.747,0,3.155-0.291,5.194-1.845h0.097
		c0,2.524-0.776,3.397-1.845,3.98c-1.068,0.582-2.621,0.874-4.757,0.874v0.097c0.388,0.389,1.311,0.874,2.864,0.874
		c1.99,0,3.058-0.776,3.058-0.776h0.097c0,1.262-0.776,2.135-1.845,2.718c-1.068,0.583-2.621,0.874-4.757,0.874v0.098
		c0.389,0.388,1.312,0.873,2.864,0.873c1.99,0,3.058-0.776,3.058-0.776h0.097c0,1.262-0.776,2.136-1.845,2.719
		c-1.068,0.582-2.621,0.873-4.757,0.873v0.098c0.389,0.388,1.312,0.873,2.864,0.873c1.99,0,3.058-0.776,3.058-0.776h0.097
		c0,1.554-1.165,2.33-2.039,2.718c-0.874,0.388-2.427,0.776-5.048,0.776V21.554z M22.65,15.146h-0.097
		c0,1.456-0.873,2.426-0.873,2.426h-0.098c0,0-0.874-0.97-0.874-2.426h-0.097c-0.194,0.582-0.631,0.874-1.068,0.874
		c-0.728,0-0.971-0.68-0.971-0.68c0.388-0.923,0.583-1.456,0.776-2.039c0.194-0.583,0.389-1.262,0.389-1.65
		c0-0.291-0.098-0.68-0.777-0.874l-0.388-0.097c-0.194-0.048-0.437-0.098-0.631-0.098c-0.34,0-0.631,0.146-0.631,0.777h-0.097
		c-0.194-0.194-0.485-0.583-0.485-1.263c0-0.389,0.097-0.582,0.388-0.776c0.389-0.243,1.311-0.583,2.233-0.776l0.389-0.583
		c0,0,0.485-0.097,1.116-0.097c1.262,0,2.864,0.388,3.544,0.388c0.485,0,1.068-0.194,1.359-0.582h0.097v0.291
		c0,0.874-0.583,1.359-1.844,1.359v0.194c1.262,0,1.941,0.582,1.941,1.553c0,0.68-0.388,1.068-0.583,1.166h-0.097
		c-0.048-0.194-0.291-0.486-0.631-0.486s-0.631,0.242-0.631,0.729c0,0.582,0.388,2.185,0.679,2.864c0,0-0.243,0.68-0.971,0.68
		C23.282,16.021,22.844,15.729,22.65,15.146z M20.369,8.738v0.098c0,0.291,0.146,0.582,0.632,0.582s0.63-0.291,0.63-0.582V8.738
		H20.369z"/>
</g>
<g>
	<path d="M51.538,5.649c0-1.458-0.048-1.888-1.689-1.888c-0.145,0-0.458,0-0.458,0V2.998c0.555,0,1.351,0.047,2.292,0.047
		c1.69,0,3.813-0.096,5.454-0.096c6.201,0,9.844,3.32,9.844,8.433c0,2.46-1.038,4.706-2.799,6.211
		c-1.833,1.553-4.054,2.246-6.562,2.246c-1.086,0-3.017-0.239-5.237-0.239c-0.772,0-1.737,0.048-2.944,0.096v-0.765
		c1.882,0,2.1-0.286,2.1-1.72V5.649z M54.626,16.447c0,0.525,0.024,1.003,0.145,1.386c0.193,0.573,1.352,1.026,2.509,1.026
		c3.717,0,6.37-2.819,6.37-7.261c0-5.137-2.75-7.765-7.576-7.765c-0.435,0-0.989,0.024-1.448,0.072V16.447z"/>
	<path d="M68.247,18.931c1.544,0,2.292-0.716,2.92-2.484l4.695-12.924c0.748-0.262,1.641-0.597,2.509-1.075l5.452,15.05
		c0.386,1.075,1.039,1.41,2.245,1.433v0.765c-1.062-0.048-2.364-0.072-3.354-0.072c-1.014,0-2.292,0.024-3.836,0.072v-0.765
		c0,0,0.241,0,0.337,0c0.965,0,1.4-0.119,1.4-0.716c0-0.191-0.073-0.549-0.242-1.075l-1.134-3.201h-5.901L72.3,16.877
		c-0.193,0.573-0.314,0.979-0.314,1.194c0,0.669,0.604,0.86,2.002,0.86v0.765c-1.206-0.048-2.509-0.072-3.908-0.072
		c-0.435,0-1.255,0.024-1.834,0.072V18.931z M76.32,5.602l-2.5,6.928h4.938L76.32,5.602z"/>
	<path d="M87.207,18.931c1.882,0,2.124-0.286,2.124-1.72V5.649c0-1.529-0.048-1.888-1.931-1.888c-0.072,0-0.193,0-0.193,0V2.998
		c0.869,0,1.497,0.047,1.93,0.047c2.509,0,4.343-0.024,5.454-0.047v0.788c-1.955,0-2.172,0.311-2.172,1.864v10.75
		c0,2.15,0.705,2.27,3.19,2.27c2.895,0,4.33-0.407,4.98-2.891l0.676,0.19l-0.893,3.823c-0.675-0.096-1.616-0.12-2.823-0.12
		c-1.038,0-2.621,0.024-4.044,0.024c-1.134,0-2.099,0-2.92,0c-2.074,0-3.185,0-3.378,0.096V18.931z"/>
	<path d="M102.616,18.931c1.881,0,2.124-0.286,2.124-1.72V5.649c0-1.529-0.049-1.888-1.931-1.888c-0.072,0-0.507,0-0.507,0V2.998
		c1.014,0.047,2.534,0.047,3.933,0.047c1.231,0,2.533,0,3.861-0.047v0.764c0,0-0.217,0-0.314,0c-1.64,0-1.907,0.382-1.907,1.959
		v4.562h8.571V5.649c0-1.529-0.049-1.888-1.93-1.888c-0.074,0-0.193,0-0.193,0V2.998c1.014,0.047,2.242,0.047,3.643,0.047
		c1.062,0,2.365,0,3.861-0.047v0.764c0,0-0.219,0-0.312,0c-1.643,0-1.932,0.382-1.932,1.959v11.062c0,1.695,0.121,2.173,2.1,2.173
		c0.049,0,0.096,0,0.145,0v0.741c-1.447-0.048-2.752-0.096-3.885-0.096c-1.061,0-2.268,0.023-3.619,0.096v-0.765
		c1.881,0,2.123-0.286,2.123-1.72v-5.59h-8.571v5.161c0,1.695,0.097,2.173,2.076,2.173c0.048,0,0.097,0,0.145,0v0.741
		c-1.303-0.072-2.582-0.096-3.861-0.096c-1.085,0-2.316,0.048-3.619,0.096V18.931z"/>
	<path d="M126.63,17.976c-1.953-1.695-2.797-3.655-2.797-6.426c0-2.222,0.699-4.229,2-5.757c1.787-2.078,4.201-3.129,7.311-3.129
		c2.271,0,4.249,0.669,5.84,2.055c1.955,1.695,2.801,3.655,2.801,6.426c0,2.222-0.701,4.229-2.004,5.757
		c-1.785,2.079-4.197,3.129-7.311,3.129C130.202,20.03,128.224,19.361,126.63,17.976z M127.161,10.977
		c0,4.826,2.582,8.027,5.982,8.027c3.139,0,5.311-2.533,5.311-7.287c0-4.825-2.629-8.098-5.959-8.098
		C129.263,3.619,127.161,6.223,127.161,10.977z"/>
	<path d="M143.595,2.998c1.182,0.071,2.438,0.119,3.668,0.119c1.111,0,2.389-0.047,3.644-0.119v0.764c0,0-0.171,0-0.267,0
		c-1.641,0-1.76,0.501-1.76,2.222V13.7c0,3.488,1.424,5.122,4.486,5.122c1.809,0,3.281-0.727,3.98-1.969
		c0.555-1.004,0.654-2.103,0.654-3.464V6.629c0-2.174-0.17-2.867-1.858-2.867c-0.122,0-0.364,0-0.364,0V2.998
		c0.678,0.023,1.498,0.071,2.391,0.071c0.988,0,2.049-0.071,3.207-0.096v0.788c0,0-0.238,0-0.336,0
		c-1.496,0-1.616,0.669-1.616,2.867v6.163c0,2.317-0.193,3.941-1.497,5.375c-1.254,1.385-3.016,1.863-5.621,1.863
		c-4.537,0-6.539-2.078-6.539-6.426V6.39c0-2.174-0.049-2.58-2.172-2.628V2.998z"/>
	<path d="M163.438,15.349l0.626-0.119c0.653,2.604,1.738,3.797,3.79,3.797c1.762,0,2.92-1.123,2.92-2.914
		c0-0.812-0.314-1.506-0.846-1.983c-0.99-0.885-2.1-1.29-2.943-1.791c-2.074-1.242-3.138-2.485-3.138-4.73
		c0-2.915,2.101-4.945,5.261-4.945c0.749,0,1.883,0.143,3.33,0.382l0.24,3.368l-0.627,0.144c-0.436-2.007-1.375-2.938-2.991-2.938
		c-1.569,0-2.8,1.219-2.8,2.794c0,0.836,0.268,1.505,0.797,2.031c0.797,0.812,1.833,1.194,2.8,1.72
		c2.316,1.243,3.546,2.461,3.546,4.707c0,3.034-2.244,5.16-5.694,5.16c-1.374,0-2.558-0.382-3.907-1.075L163.438,15.349z"/>
	<path d="M175.972,18.931c1.881,0,2.123-0.286,2.123-1.72V5.649c0-1.529-0.049-1.888-1.93-1.888c-0.074,0-0.193,0-0.193,0V2.998
		c1.013,0,2.188,0.047,3.588,0.047c1.23,0,2.502-0.047,3.829-0.047v0.764c0,0-0.219,0-0.313,0c-1.642,0-1.906,0.382-1.906,1.959
		v11.156c0,1.672,0.119,2.054,2.22,2.054v0.765c-1.158,0-2.316-0.096-3.522-0.096c-1.158,0-2.424,0.096-3.895,0.096V18.931z"/>
	<path d="M185.192,18.931c1.883,0,2.125-0.286,2.125-1.72V5.649c0-1.529-0.049-1.888-1.932-1.888c-0.071,0-0.193,0-0.193,0V2.998
		c1.328,0,3.369,0.047,5.975,0.047c3.549,0,5.686-0.047,6.266-0.047v3.606l-0.629,0.144c-0.217-2.389-1.085-2.723-3.595-2.723h-2.78
		v6.33h2.064c2.004,0,2.693-0.19,2.693-1.981c0-0.024,0-0.096,0-0.096h0.726c-0.05,1.026-0.099,1.887-0.099,2.651
		c0,0.717,0.025,1.625,0.074,2.699l-0.652,0.144c-0.049-2.006-0.619-2.222-2.691-2.222h-2.115v4.921
		c0,1.887,0.535,2.198,2.828,2.198c3.113,0,4.393-0.287,5.068-2.891l0.676,0.19l-0.895,3.799c-2.34-0.071-4.31-0.071-5.805-0.071
		c-1.206,0-2.187,0-2.861,0c-0.748,0-1.448,0-2.1,0c-0.797,0-1.52,0-2.148,0.071V18.931z"/>
	<path d="M49.486,29.128c1.17,0.072,2.413,0.12,3.631,0.12c1.099,0,2.365-0.048,3.607-0.12v0.765c0,0-0.167,0-0.262,0
		c-1.625,0-1.744,0.502-1.744,2.222v7.716c0,3.488,1.347,5.122,4.38,5.122c1.792,0,3.187-0.726,3.88-1.968
		c0.549-1.004,0.646-2.103,0.646-3.465v-6.761c0-2.173-0.167-2.866-1.84-2.866c-0.12,0-0.358,0-0.358,0v-0.765
		c0.669,0.024,1.481,0.072,2.365,0.072c0.98,0,2.031-0.072,3.177-0.097v0.789c0,0-0.239,0-0.335,0c-1.48,0-1.6,0.669-1.6,2.866
		v6.164c0,2.317-0.191,3.942-1.481,5.375c-1.242,1.386-2.923,1.864-5.504,1.864c-4.491,0-6.411-2.08-6.411-6.427v-7.215
		c0-2.174-0.048-2.579-2.15-2.628V29.128z"/>
	<path d="M68.767,45.062c0,0,0.191,0,0.287,0c1.839,0,2.198-0.98,2.198-3.679v-9.078c0-1.673-0.311-2.15-2.389-2.413v-0.765
		c0.501,0,1.313,0.047,2.485,0.047c1.242,0,2.293-0.047,2.293-0.047L83.1,41.097v-8.528c0-2.103-0.526-2.676-2.437-2.676
		c-0.048,0-0.12,0-0.12,0v-0.765c0.646,0,1.41,0.047,2.341,0.047c1.529,0,2.771-0.047,3.775-0.047v0.765c0,0-0.143,0-0.215,0
		c-1.839,0-2.173,0.836-2.173,3.416V46.28h-0.86L72.422,32.473v8.911c0,2.698,0.191,3.679,2.054,3.679c0.167,0,0.502,0,0.502,0
		v0.764c-0.789,0-1.792-0.07-2.962-0.07c-1.147,0-2.222,0.07-3.25,0.07V45.062z"/>
	<path d="M88.372,45.062c1.864,0,2.103-0.286,2.103-1.72V31.78c0-1.53-0.048-1.887-1.912-1.887c-0.072,0-0.191,0-0.191,0v-0.765
		c1.004,0,2.199,0.047,3.583,0.047c1.219,0,2.229-0.047,3.543-0.047v0.765c0,0-0.122,0-0.218,0c-1.624,0-1.763,0.383-1.763,1.959
		v11.156c0,1.673,0.12,2.055,2.197,2.055v0.764c-1.146,0-2.231-0.095-3.425-0.095c-1.146,0-2.461,0.095-3.918,0.095V45.062z"/>
	<path d="M104.33,46.113l-5.805-14.907c-0.471-1.162-1.237-1.244-1.973-1.314v-0.765c1.027,0,1.83,0.047,2.69,0.047
		c1.887,0,3.273-0.047,4.229-0.047v0.765c0,0-0.249,0-0.344,0c-0.949,0-1.305,0.216-1.305,0.645c0,0.383,0.144,0.741,0.263,1.075
		l3.656,10.225l3.703-10.153c0.144-0.382,0.215-0.692,0.215-0.931c0-0.67-0.573-0.836-1.911-0.86v-0.765
		c0.669,0,1.337,0.047,1.982,0.047c0.598,0,1.611-0.047,3.021-0.047v0.765c-0.766,0-1.444,0.526-1.874,1.601l-5.662,14.62H104.33z"
		/>
	<path d="M113.546,45.062c1.863,0,2.102-0.286,2.102-1.72V31.78c0-1.53-0.244-1.887-1.537-1.887c-0.103,0-0.133,0-0.314,0v-0.765
		c1.314,0,3.023,0.047,5.604,0.047c3.51,0,5.566-0.047,6.139-0.047v3.608l-0.621,0.143c-0.215-2.389-1.072-2.724-3.561-2.724h-2.627
		v6.331h1.984c1.982,0,2.602-0.191,2.602-1.983c0-0.022,0-0.096,0-0.096h0.719c-0.049,1.028-0.096,1.888-0.096,2.652
		c0,0.716,0.023,1.625,0.072,2.7l-0.646,0.143c-0.049-2.007-0.549-2.222-2.604-2.222h-2.031v4.92c0,1.887,0.406,2.199,2.676,2.199
		c3.082,0,4.35-0.287,5.018-2.891l0.67,0.191l-0.885,3.798c-2.318-0.072-4.205-0.072-5.686-0.072c-1.195,0-2.102,0-2.771,0
		c-0.74,0-1.432,0-2.078,0c-0.789,0-1.506,0-2.127,0.072V45.062z"/>
	<path d="M129.169,45.062c1.863,0,2.104-0.286,2.104-1.96V31.78c0-1.53-0.049-1.887-1.912-1.887h-0.191v-0.765
		c1.363,0.047,2.484,0.047,3.369,0.047c1.457,0,2.824-0.072,3.876-0.072c3.94,0,6.091,1.674,6.091,4.253
		c0,2.03-1.17,3.488-3.344,4.228c2.961,4.946,4.682,7.526,6.043,7.526c0.072,0,0.34,0,0.34,0v0.716
		c-0.645-0.047-1.51-0.07-2.322-0.07c-0.668,0-1.4,0.023-2.285,0.07c-1.863-2.675-3.416-5.207-4.684-7.62h-1.93v4.896
		c0,1.674,0.262,1.96,2.223,1.96v0.764c-1.268-0.07-2.502-0.095-3.792-0.095c-1.243,0-2.462,0.024-3.585,0.095V45.062z
		 M135.29,37.347c2.725,0,4.016-1.171,4.016-3.608c0-2.508-1.316-3.726-3.992-3.726c-0.262,0-0.703,0-0.99,0.023v7.286
		C134.61,37.347,135.028,37.347,135.29,37.347z"/>
	<path d="M146.634,41.479l0.62-0.119c0.646,2.604,1.721,3.799,3.751,3.799c1.744,0,2.891-1.123,2.891-2.915
		c0-0.812-0.311-1.504-0.836-1.982c-0.979-0.884-2.078-1.29-2.915-1.792c-2.054-1.242-3.105-2.484-3.105-4.73
		c0-2.914,2.079-4.945,5.208-4.945c0.74,0,1.863,0.144,3.298,0.382l0.237,3.37l-0.62,0.143c-0.431-2.007-1.361-2.938-2.962-2.938
		c-1.553,0-2.771,1.218-2.771,2.795c0,0.836,0.264,1.505,0.787,2.03c0.789,0.812,1.816,1.194,2.771,1.72
		c2.293,1.242,3.514,2.461,3.514,4.706c0,3.034-2.223,5.161-5.639,5.161c-1.361,0-2.533-0.383-3.871-1.075L146.634,41.479z"/>
	<path d="M158.826,45.062c1.862,0,2.103-0.286,2.103-1.72V31.78c0-1.53-0.049-1.887-1.911-1.887c-0.073,0-0.191,0-0.191,0v-0.765
		c1.003,0,2.165,0.047,3.552,0.047c1.219,0,2.477-0.047,3.792-0.047v0.765c0,0-0.216,0-0.312,0c-1.624,0-1.887,0.383-1.887,1.959
		v11.156c0,1.673,0.119,2.055,2.198,2.055v0.764c-1.146,0-2.263-0.095-3.457-0.095c-1.147,0-2.431,0.095-3.887,0.095V45.062z"/>
	<path d="M170.974,45.062c0,0,0.143,0,0.214,0c1.934,0,2.079-0.382,2.079-2.293V30.25h-2.4c-1.863,0-2.556,0.336-2.962,2.342
		l-0.669-0.047c0.191-1.171,0.334-2.509,0.432-4.014h0.572c0.119,0.572,0.598,0.597,1.457,0.597h10.457c0.74,0,1.221,0,1.459-0.669
		l0.525,0.167c-0.166,1.529-0.264,2.796-0.31,3.775l-0.718,0.239c-0.048-1.936-0.502-2.391-2.15-2.391h-2.588v12.52
		c0,1.911,0.143,2.293,2.293,2.293v0.764c-1.887,0-2.63-0.119-3.775-0.119c-1.146,0-2.58,0.119-3.916,0.119V45.062z"/>
	<path d="M187.212,45.062h0.239c1.79,0,2.054-0.382,2.054-2.27v-4.634l-4.08-6.498c-0.692-1.075-1.004-1.769-2.197-1.769v-0.765
		c0.836,0,1.648,0.047,3.701,0.047c1.146,0,2.199-0.047,3.105-0.047v0.765h-0.43c-0.764,0-1.146,0.167-1.146,0.55
		c0,0.263,0.168,0.55,0.43,0.907l2.91,5.017l2.776-4.419c0.381-0.573,0.692-0.979,0.692-1.361c0-0.431-0.598-0.645-1.816-0.693
		v-0.765c1.242,0.024,2.294,0.047,3.178,0.047c0.883,0,1.068-0.047,1.93-0.047v0.765c-1.314,0.071-1.596,0.765-2.576,2.197
		l-3.371,5.232v5.447c0,1.911,0.239,2.293,2.293,2.293v0.764c-1.312-0.047-2.508-0.07-3.775-0.07c-1.266,0-2.556,0.07-3.916,0.07
		V45.062z"/>
</g>
</svg>
